<?xml version="1.0" encoding="UTF-8"?>
<svg xmlns="http://www.w3.org/2000/svg" viewBox="0 0 756.82 635.49">
  <defs>
    <style>
      .cls-1 {
        fill: #525252;
      }

      .cls-1, .cls-2, .cls-3, .cls-4, .cls-5, .cls-6, .cls-7, .cls-8, .cls-9, .cls-10, .cls-11, .cls-12, .cls-13, .cls-14, .cls-15, .cls-16 {
        stroke-width: 0px;
      }

      .cls-2 {
        fill: #898989;
      }

      .cls-3 {
        fill: #c8c8c8;
      }

      .cls-17 {
        fill: #684b34;
      }

      .cls-17, .cls-18, .cls-19, .cls-20 {
        stroke: #000;
        stroke-linecap: round;
        stroke-linejoin: round;
        stroke-width: 2.75px;
      }

      .cls-4 {
        fill: #d0d0d0;
      }

      .cls-18 {
        fill: #b79797;
      }

      .cls-5 {
        fill: #a6a6a6;
      }

      .cls-6 {
        fill: #6e6e6e;
      }

      .cls-7 {
        fill: #535353;
      }

      .cls-8 {
        fill: #ddd;
      }

      .cls-9 {
        fill: gray;
      }

      .cls-10 {
        fill: #919191;
      }

      .cls-19 {
        fill: #763c8e;
      }

      .cls-11 {
        fill: #b8b8b8;
      }

      .cls-12 {
        fill: #969696;
      }

      .cls-13 {
        fill: #787878;
      }

      .cls-20 {
        fill: #a5efb7;
      }

      .cls-14 {
        fill: #acacac;
      }

      .cls-15 {
        fill: #fefefe;
      }

      .cls-16 {
        fill: #9d9d9d;
      }
    </style>
  </defs>
  <g id="laender">
    <path class="cls-14" d="M568.92,54.84c-3.28-.44-4.88,2.22-7.09,3.79-1.87,1.32-3.46,2.61-4.5,4.93-1.89,4.23-6.59,3.34-10.12,4.07-2.49.51-3.75-2.43-4.44-4.5-3.67-11.07-9.29-15.6-20.67-15.97-3.11-.1-5.04-1.16-5.9-4.25-3.64-13.12-10.6-24.76-16.71-36.76-2.59-4.97-9.46-3.19-13.84-5.65-6.93-2.06-17.2,2.53-20.76,8.84-.77,1.37-1.95,2.62-.16,3.94,8.1,5.82-1.05,12.88-1.56,20.05-2.62,7.17-1.02,16.22-9.42,20.95-6.45,5.65-8.76-4.32-10.94,3.12-.09,4.07-9.41,23.95-1.37,21.94,3.92-1.26,8.79,1.57,11.98-2.85.4-.56,1.8-.59,2.72-.56,4.88.12,14.05,11.7,12.98,16.44-1.42,7.8-7.14-3.87-12.41,2.68-4.12,4.23-12.12,3.9-11.98,11.34-.62,9.05-11.13,5.08-14.44,11.58-6.94,12.91-16.16-6.21-19.52,6.19-3.42,7.16,7.39,9.95,1.32,14.9-3.57,2.74-5.8,6.56-8.61,9.91-9.23,12.04-22.57,1.2-34.9,12.14-3.9,2.81-7.03,5.41-13.52,2.74-6.92-2.86-14.24-3.99-19.65-10.01-1.78-1.98-4.81-3.23-7.84-3.08-8.88.44-17.37-1.88-26.03-3.11-13.95-1.16-6.76-16.11-14.1-22.63-3.42-1.59-5.67-4.42-7.77-7.46-1.93-2.79-4.55-4.5-8.09-4.84-6.81-.1-18.45-4.46-13.39-12.46,5.72-8.67,2.51-17.06.15-25.58-5.13-8.03-11.26-4.98-13.91-19.64-.32-1.69-.87-2.97-2.75-3.08-4.81-1.05-3.04,5.26-6.42,6.02-11.88,1.25-5.24,13.07-11.64,18.35-5.46,4.18-9.11-1.27-13.56-2.29-1.07-.25-2.04-2.61-3.14-.52-3.18,6.06-8.24,12.15-8.55,18.43-.36,7.36-2.16,5.16-5.99,3.26-3.72-1.84-7.63-.17-11.15.7-3.82.94.51,2.97.37,4.83-1.21,10.1-4.21,29.5-12.89,35.13-4.01,2.73-9.69,1.53-13,5.49-2.35,2.81-5.47,3.32-8.31,2.33-7.76-3.85-9.6,12.43-16.69,3.72-1.72-2.23-4.01-1.71-5.55-.68-3.84,2.6-8.92,2.6-11.59,8.01-2.67,5.39-3.63,9.57.68,14.08,3.05,3.78.87,9.44,1.45,13.95-.02,2.24.55,4.52-3.05,4.98-2.49.32-1.56,2.27-.03,2.96,5.94,2.69,6.46,7.69,5.91,13.17-.11,1.12-.96,2.65.02,3.22,3.98,2.35,5.01,7.87,9.94,9.1,1.97.05,4.86.68,4.12,2.64-3.52,5.42,7.49,15.4,2.35,16.71-.26,1.59-2.83,2.1-1.95,4.22.12,3.38-.24,6.57,2.95,9.37,3.12,2.73.39,10.81-3.85,11.56-7.22.36-6.14,12.25-2.69,15.89,1.59,2.29,6.36,1.71,5.73,6.17,4.53.52,1.45,4.1,2.44,6.04,7.21,6.18,7.8.34,10.38,4.55.74.04,1.85-.18,2.13.2,1.51,3.26,10.68,11.8,8.38,14.59.02.57-.09,1.6.08,1.65,5.64,1.63,5.11,8.17,8.95,11.18,6.7-2.36,6.41,3.39,8.05,6.9,2.5-.41,3.51,2.56,5.83,2.56.08-.79-1.13-1.86.21-2.33,2.13-.66,1.19,3.04,2.17,4.27,4.91-1.57,8.39,7.76,10.95.41.48-1.39,3.24-3.52,3.52-2.84,1.24,3.1,7.73.29,6.27,5.79,1.45,2.44,4.58,3.59,6.74,1.24,3.31-10.75,11.95,2.77,18.63,1.71,1.33-.09,2.03,1.51,2.09,2.97,1.52,2.1,3.99.69,5.84,1.57.62-4.07,3.42-5.04,6.99-4.9.62-3.66.79-7.81,6.5-5.68,2.07.77,1.73-1.51,2.64-2.22,9.04-7.85,6.76-1.84,14.83-1.51.98-3.26,2.72-4.52,5.8-2.17,5.52-.77,4.79,12.54,7.91,16.21,5.61-4.15,9.11-3.12,9.85,4.14.37,3.58,3.96,3.71,4.1,6.49.57,11.51,1.76,23.25-9.01,31.5-4.72,3.61-3.26,8.5-2.81,13.12,1.79,3.86,11.14-5.32,9.59,10.22,1.29.74.12,2.81.91,2.98,8.52,1.98,3.16,8.04,2.6,12.76,0,.45.62,1.29.92,1.27,6.64-.43,4.14,10.53,11.46,9.16,2.5-4.31,4.2-3.62,5.6.77.44,1.38-.3,4.17,2.43,3.64,2.35-.46,1.1-2.85,1.35-4.39-.14-8.67-1.82-11.13,7.69-14.09,2.19-1.49,4.43.65,6.11,1.3,3.19-4.42,7.58-1.23,11.31-1.61,7.57.02,10.88-14.71,16.37-3.84,3.84-.98,6.05,2.31,9.09,3.44,7.9-1.49-6.67,7.92,4.78,12.58.66.32.86,1.59,1.27,2.41,6.59,4.1,14.01-3.93,20.17,3,.16.18,1.03-.34,1.58-.38,9.49-.57-.43,9.53,5.49,14.2,2,3.96,6.8-.03,3.89-2.81-9.37-8.59,16.97-13.99,22.1-16.42,11.97-4.22,6.39-11.17,9.77-14.16,2.05,2.62,4.55,5.96,8.18,3.45,7.74-5.14,19.28-1.32,22.97-11.71,3.64-5.89,10.3-9.87,11.78-17.19,3.92.67,4.41-2.71,5.5-4.97,2.71-5.63,8.88-9.93,6.91-17.41-4.75-14.82,2.67-3.71,6.07-16.26.68-11.3,9.84-12.1,7.45-22.71-.22-1.98-.36-3.93.22-5.79.04-.02.07-.04.11-.06q1.42-8.13-13.5-11.66c5.93-.36,6.6-5.56,10.31-7.02,8.67-4.09-7.09-7.92-6.85-12.4.48-2.25,3.05-2.29,5.18-2.07.23-.27.45-.54.68-.81-4.63-6.39-8.94-12.88-11.37-20.57-1.77-5.58-4.12-10.99-10.47-13.46-3.52-1.37-3.79-4.18-2.43-8.06,2.36-6.74,6.6-12.13,10.6-17.76,1.87-2.64,2.94-5.9,6.45-7.25,2.55-.65,10.02-4.36,5.41-6.69-4.99-1.3-10.23-1.89-15.25-3.39-2.49.41-3.86,4.47-5.13,6.5-2.12,5.72-10,2.58-8.21-2.83,4.03-11.76-12.66-.46-12.39-14.85-.13-3.08-.24-7.71,5.99-7.1,7.57.08,4.85-5.35,7.85-9.54,5.13-4.04,7.97-9.72,11.1-15.15,1.29-2.24,2.53-2.2,4.64-1.55,13.06,3.82-.54,13.72.66,19.97,5.59,3.55.45,5.44-.51,7.93,7.34.08,5.96-9.98,12.37-12.02,12.3-5.22,9.4-11.24,17.83-17.51,7.97-3.72,2.87-20.04,14.91-13.22,1.29.72,4.87,1.03,3.38-2.13-2.08-4.4-.95-5.79,3.41-6.12,1.5-.12,2.32-1.45,2.62-2.76.83-3.61,5.33-5.65,4.2-10.14.58-3.87,11.3,3.49,8.88-8.97-1.19-5.58-2.39-11.26-4.57-16.48-1.93-4.65,2.94-5.94,3.5-9.39.38-2.35,3.39-.45,4.95.12,8.96,5.39,4.89-30.46,7.56-33.74,3.05-3.93-2.03-6.94-1.16-10.61ZM508.13,325.64c-.09.18-.18.31-.44.25.15-.08.29-.17.44-.25ZM494.29,291.05c.88.14,1.75.27,2.63.41-.13,1.49-1.95.4-2.97.54.11-.32.23-.64.34-.96Z"/>
    <path class="cls-1" d="M134.95,235.55c-.26,1.59-2.83,2.1-1.95,4.22-2.81,2.48-1.96,5.52-.98,8.35.77,2.22,1.52,4.39.83,6.67-.84,2.79-.87,7.57-5.59,2.61-1.41-1.48-3.58-1.49-3.28,1.3.64,5.84,1.02,11.65.47,17.51-.08.82.58,2.38,1.12,2.49,5.08,1.03,6.68,5.4,9.16,8.98.56.8,1.49,1.84,2.87,1.13,0,0-.04-.05-.04-.05,1.79,4.14-2.12,6.15-3.43,9.13l.05-.04c-1.37-.12-1.22.86-1.23,1.71-3.81,2.19-4.53,5.88-4.76,9.81,6.23,9.76,13.49,18.57,22.71,25.72,2.22,1.72,3.44-.81,5.18-.32l-.08-.04c4.39,1.2,7.27,4.13,9.24,8.09l-.03-.05c-.11,1.96,1.21,3.31,2.59,4.02,4.43,2.3,9.03,4.28,13.57,6.38l-.03-.03c1.02,2.47,3.14.59,4.64,1.18l-.04-.05c2.9,3.48,6.53,3.45,10.42,2.14.47,1.49-.51,2.5-1.22,3.6l.06-.07c-3.99,2.39-3.36,4.78.01,7.16,1.42,1.57,2.83,3.14,4.69,5.19-5.58-.05-8.66,3.02-10.17,6.79-1.41,3.53,2.17,5.51,4.69,7.43-.69,2.51-2.38,5.24-1.88,7.49,1.37,6.31,1.16,12.67,1.74,18.99-.19.96-.13,2.04-1.22,2.59-.27-.12-.55-.19-.84-.2-.48-1.43-1.39-1.79-2.72-1.09-5.53-.81-9.39,3.91-14.62,4.39-2.94.27-4.37,2.55-4.77,5.63-1.07,8.37-4.57,12.03-12.92,14.11-6.07,1.52-11.22,4.39-15.45,9.23-5.99,6.85-14.32,10.53-22.06,14.94-2.92,1.66-6.22,2.21-7.18,6.46-.6,2.66-3.46,3.9-6.57,3.24-3.07-.65-5.62-.12-7.14,3.09-1.06,2.23-2.25,2.85-5.21,1.74-4.22-1.57-8.94,4.45-9.69,10.38-1.04,8.24-.69,16.73-3.89,24.64-.43,1.05-.57,2.45-1.33,3.1-7.4,6.25-8.06,15.26-9.96,23.78-.29,1.31.38,3.56-2.26,2.87-6.57-1.71-8.41,4.07-10.24,7.68-1.39,2.75-2.29,3.9-5.05,3.65-3.31-.3-5.22,1.36-6.91,4.05-4.32,6.87-9.38,6.72-13.34-.32-2.71-4.81-3.5-10.07-2.98-15.53.43-4.58.05-9.08-.33-13.67-.57-6.86-1.11-13.49-3.43-20.12-1.73-4.93-1.51-10.38-.69-15.84,1.06-7.07.96-14.18-.87-21.42-3.03-12-1.6-24.23.27-36.37,1.28-8.28,1.49-16.69,3.26-24.92.65-3.04,1.62-5.93,3.26-8.52,1.91-3.02,3.43-5.98,1.95-9.67-.63-1.57-.13-3.38.96-4.29,3.64-3.02.25-8.04,3.46-11.22.6-.59-.97-1.78-2.27-1.62-2.29.28-3.37,1.98-3.69,3.89-1.42,8.55-7.54,10.37-14.86,10.96-4.21.34-6.07-2.54-7.28-5.36-2.7-6.29-4.75-12.86-7.63-20.89,4.75,3.63,8.52,1.56,12.3,1.24,2.17-.19,3.75-1.91,3.41-3.79-.36-1.99-2.56-.83-3.94-.76-5.19.25-7.93-2.53-9.56-9.14-1.27-5.16,3.26-7.17,5.35-10.46.28-.44,2.73-.05,3.74.61,3.93,2.59,8.64,2.12,12.89,3.48,3.56,1.14,6.98-.97,6.3-5.03-.88-5.26,2.09-11.29-2.92-15.82-.67-.61-.5-1.79.04-2.7,2.21-3.68,2.45-7.07-1.1-10.23-1.33-1.18-1.01-2.98.21-4.13,3.04-2.84,6.19-5.58,9.41-8.21,1.02-.83,2.24-1.16,3.5.24,4.21,4.67,9.61,4.68,13.95.42,3.19-3.13,5.63-6.94,10.52-8.36,2.94-.85,4.87-4.17,6.47-7.05,1.04-1.88,2.62-2.91,4.46-4.09,6.12-3.94,11.97-8.79,13.54-16.19.83-3.94,2.07-5.75,5.8-6.33,4.25-.66,4.71-2.53,1.8-5.7-4.71-5.11-5.82-13.73-2.03-19.57,1.76-2.71-.45-4.83.29-7.5,1.22-4.39,3.4-5.23,6.36-2.9,9.92,7.83,18.75,3.49,27.65-1.81,1.2.02,2.51.17,2.18,1.76-1.24,5.86,1.23,10.61,4.33,15.2Z"/>
    <path class="cls-2" d="M294.16,406.02c.01.79.03,1.59.04,2.38-1.46,1.59-2.08,4.34-.38,4.92,6.19,2.13,3.04,5.83,1.95,9.07-1.09,3.23-.74,5.21,3.12,5.5,1.91.14,3.36,1.12,3.34,3.21-.04,4.54,2.73,5.4,6.44,5.17-1.06,6.45-5.22,11.72-10.84,12.23-3.02.27-2.18,2.18-2.89,3.51-.56-.01-1.12-.03-1.68-.04-.77.07-1.29.43-1.43,1.24l.03-.04c-1.83,2.33-4.08,4.31-7.17,3.28-5.47-1.83-6.61,1.71-7.66,5.6-.73,2.71-.57,6.88-2.28,7.87-4.56,2.63-2.27,4.31-.18,6.5.66,2.6,1.33,5.19,1.99,7.79.5.41,1,.82,1.5,1.22l-.04-.04c-.46,1.83.42,3.31,1.25,4.8,4.98,8.86,4.41,17.21-2.31,24.99-.38,1.26-1.94,2.6.27,3.67.93,4.93,2.06,9.73,7.74,11.45l-.05-.08c-.41,3.22,2.14,6.24.88,9.43-1.98,5-.12,9.08,2.62,13.05,0,0-.04,0-.04,0,.07,1.32.13,2.64.2,3.95-1.68,2.27-4.01,2.7-6.61,2.3-1.28-1.28-1.89-2.73-1.62-4.63,1.12-7.81-1.24-15.16-3.43-22.44-3.07-10.25-3.31-20.74-4.02-31.28-.27-4.04-3.69-7.88-6-12.46-1.31,2.21-2.13,3.86-3.21,5.33-.83,1.13-1.09,3.24-3.14,2.77-1.59-.36-.43-2.46-2.26-4.16,1.66,7.78-6.79,6.82-8.26,11.66-3.52-2.62-8.32-1.34-11.83-3.8-2.95-2.06-.24-4.29.57-5.95,4.98-10.21,4.69-20.41.86-30.83-.91-2.48.46-5.05-.72-7.91-2.43-5.86-4.29-11.52-10.45-15.02-3.79-2.15-4.87-6.87-5.45-11.24.89,0,1.77,0,2.66,0,1.73,2.6,3.15,2.77,3.92-.59.37-1.62-.65-4.31.92-4.79,7.95-2.41,5.67-9.23,6.78-14.61.52-.42,1.03-.84,1.55-1.26,1.79-1.66,1.67-4.05,2.29-6.13.53-1.8-.58-4.34,2.47-4.83l-.03-.02c1.25,2.53,3.39,3.37,5.43,1.53,1.97-1.77,2.5-4.56,2.54-7.27l-.02.03c5.45-4.03,4.68-10.73,6.95-16.13l-.03.04c2.14-.38,2.84-2.28,2.86-3.81.04-3.97,2.14-6.93,4.08-10.04l-.03.03c1.11.26,1.93-.06,2.35-1.19l-.06.04c3.9-.22,6.89-5.51,11.45-2.08.64,1.79,2.42,1.99,1.91.15-1.03-3.72.42-6.53,1.64-9.6l-.07.06c2.56.64,1.89-1.58,2.54-2.73.59-1.05.8-2.93,2.47-2.61.91.17,1.97,1.3,2.34,2.25,1.41,3.63,4.1,7.47,4.78,10.37,1.79,7.69,1.63,17.11-4.95,22.72-7.39,6.3-7.87,14.27-9.16,22.41-.16,1.03,1.15,2.01,1.91,1.45,5.69-4.23,8.87-.98,11.69,3.66Z"/>
    <path class="cls-10" d="M288.38,552.69s.04,0,.04,0c-.8-6.17-1.41-12.34-1.36-18.58,0-1.46-.86-2.9-2.13-3.9,0,0,.05.08.05.08-2.24-4.04-4.61-8-7.74-11.45-2.2-1.07-.65-2.41-.27-3.67,2.43.14,5.64-.44,5.41-2.84-.52-5.46,7.13-9.35,1.82-16.19-2.22-2.87-3.37-7.52-6.18-10.75,0,0,.04.04.04.04-.5-.41-1-.82-1.5-1.22-.66-2.6-1.33-5.19-1.99-7.79,1.62-3.72,4.13-7.15,4.22-11.39.12-5.46,2.53-7.91,8.18-7.14,3.25.44,5.68-.63,4.89-4.71l-.03.04c.81-.03,1.28-.45,1.43-1.24.56.01,1.12.03,1.68.04,3.62.07,7.05-2.34,10.77-.8.37,1.06.75,2.12,1.12,3.18-.84.49-.95,1.29-.91,2.16-1.23.6-1.59,1.35-.41,2.37.09,2.11.68,4.27,3.27,3.32,4.38-1.6,3.51,1.33,3.86,3.72.74,5.1-3.37,9.66-1.52,14.84-.41,1.24-.67,2.55-1.25,3.7-.67,1.33-3.29,2.62-.59,3.96,2.2,1.09,4.08-.05,4.42-2.79.98-.16,1.97-.31,2.37-1.42l-.03.03c1.12-.43,1.98-1.12,2.33-2.33l-.03.02c.98.01,1.88-.15,2.34-1.17l-.03.03c.77,0,1.54,0,2.31,0l-.04-.05c.4.4.8.8,1.21,1.21l-.07-.05c1.43,1.76,2.36,5.69,5.2,1.17l.1.04c1.32.08,2.57.06,2.86-1.64l-.06-.16c4.39-3.89,6.78-3.68,10.13,1.13.7,1.01,1.32,1.73,2.54,1.8l-.04-.05c.32.34.64.68.96,1.02,3.11.44,3.42,2.3,3.57,5.19.21,4-3.74,8.03.06,11.94-1.34,4.92,3.86,6.15,5.36,9.47.49,1.09,2.92,1.34,1.82,3.01-1.81,2.74-.54,5.4-.58,8.14-.03,2.54-.41,6.76-4.37,5.94-6.1-1.27-12.22.53-18.22-.93-5.86,1.56-12.66,11.46-12.2,17.27.29,3.6,2.06,6.66,2.93,10.03-.92.12-2.29.68-2.7.28-4.06-3.98-8.71-6.15-14.52-6.6-3.04-.23-1.69-3.32-1.38-5.23.52-3.18.58-6.06-3.76-5.71-2.94.24-6.78-.68-6.47,4.84.23,4.11-.85,8.3-1.35,12.45-2.93,1.38-4.23-.64-5.54-2.64ZM347.3,489.13c-.16.05-.35.06-.48.16-.04.04.06.27.1.41.16-.05.35-.07.48-.16.04-.03-.07-.27-.1-.41ZM346.4,494.27c-.06.16-.15.32-.15.48,0,.05.26.1.4.15.06-.16.15-.32.15-.48,0-.06-.26-.1-.39-.15Z"/>
    <path class="cls-11" d="M376.1,434.79c1.15.42,2.3.84,3.45,1.26,1.5,2.58-.68,7.96-4.18,8.73-3.84.85-5.57,3.16-6.3,6.49-.36,1.63-.89,2.89-2.32,3.68-5.94,3.25-5.37,9.9-7.79,14.99-.31.65.17,1.89.62,2.66,6.11,10.71,10.98,22.23,20.73,30.52,10.38,8.83,14.04,20.89,16.45,33.79,1.69,9.04-.93,17.73-.69,26.6.04,1.41-1.33,3.41-2.62,4.2-7.18,4.4-12.87,11.65-22.25,11.95-1.75.06-2.14,1.17-2.31,2.66-.53,4.7-3.25,7.92-7.31,9.99-4.06,2.07-8.29,3.76-10.76,8.02-.65,1.12-2.23,1.6-3.61.91-1.58-.78-1.28-2.48-.87-3.55,1.51-3.93-.37-8.44,2.42-12.19,1.43-1.93-.78-2.88-2.01-3.19-2.64-.66-3.63-2.54-4.53-4.69,2.33-.07,4.66-.14,6.99-.21,3.03-2.54,6.26-4.06,10.34-2.54,1.5.56,3.09.4,4.1-1.11,1.03-1.55-.37-2.4-1.14-3.43-2.13-2.85-2.11-3.8,1.75-6.05,4.38-2.55,10.13-3.78,12.94-8.81.23-.02.47,0,.69.06,1.58-.65,1.61-1.46.25-2.41v-2.01c.7-.41,1.07-.83.02-1.29h.01c-.37-.38-.74-.76-1.11-1.14-.57-3.2,3.28-5.87,1.1-9.26-.13-1.59.64-3.4-1.16-4.56,0,0,0,0,0,0,3.98-8.44,1.3-17.1.76-25.67-.09-1.48-1.65-1.91-3.09-1.92l.03.02c-.07-2.23-1.19-3.43-3.46-3.46h0c-.02-2.47-2.08-2.76-3.73-3.48-.27-.78-.54-1.56-.81-2.33.96-.1,2.19-.31,1.79-1.52-.62-1.9-2.1-3.06-4.25-3.05-1.05-.43-1.8-1.15-2.17-2.24-.04-1-.17-1.94-1.27-2.38-3.51-.97-3.39-3.8-3.37-6.58.12-1.66-.57-2.59-2.32-2.58l.03.02c-.62-5.65-3.41-9.37-9.24-10.37l.02.03c.16-2.55-2.98-2.65-3.48-4.7l.02.02c.95-3.66,6.42-.5,7.05-4.65l.29-.03.28.08c3.15-3.44.83-11.16-4.16-13.81-.03-.29-.02-.59.03-.88-.84-2.48-2.47-2.72-4.43-1.4-3.14,2.12-5.75.91-8.28-1.13l.03.05c0-2.25-.1-4.51.05-6.76.18-2.66-1.01-3.83-3.58-3.8-.79-1.02-2.45-1.45-2.2-3.19-.04-.98-.07-1.96-1.19-2.4v.03c.33-1.85,1.38-5.04,2.68-4.09,4.07,3,7.85-.11,11.73.41,7.09.95,10.95-1.6,12.11-6.7,2.68-2.51,5.4,1.58,8.08-.04,3.84-.98,6.05,2.31,9.09,3.44-3.37,9.47-1.96,12.97,6.04,14.99Z"/>
    <path class="cls-5" d="M349.18,577.41c-2.33.07-4.66.14-6.99.21-2.75-.12-5.35-1.8-8.03-.64-1.83-1.35,4.05-9.01-4.16-4.77-1.01.52-1.33-.93-1.43-1.88-.51-5.3-3.28-9.94-4.48-15.04-.86-3.37-2.64-6.43-2.93-10.04-.46-5.82,6.34-15.71,12.2-17.27,1.55,3.17,4.54,1.94,7.01,2.29,3.28.46,6.83-1.18,9.84,1.31,2.5,2.07,5.46,2.36,8.55,2.12.35,0,.71,0,1.06.02,0,1.09-.45,2.54,1.04,2.85,1.54.32,3.03-1.22,2.9-2.17-.93-6.69,3.26-4.71,6.66-4.16h.46c4.66-1.94,4.82,2.08,6.1,4.61,0,0,0,0,0,0,0,1.62-.57,3.38,1.16,4.56,2.18,3.39-1.68,6.06-1.1,9.25.37.38.74.76,1.11,1.14,0,0-.01,0-.01,0-.01.43-.02.86-.04,1.29,0,.67,0,1.34.01,2.02-.08.81-.17,1.61-.25,2.41-.23-.06-.46-.08-.69-.06-6.91.76-11.67,6.51-18.37,7.86-1.59.32-.71,2.21-.38,3.51.82,3.28-.14,5.43-3.93,4.87-4.71-.69-5.56,1.92-5.31,5.7Z"/>
    <path class="cls-13" d="M225.65,428.99c-.89,0-1.77,0-2.66,0-1.51-3.27-.59-6.71-.68-10.08-.19-6.73-.88-7.42-6.99-6.93-.5.04-1.09-.93-1.64-1.43-.5-3.2-1.01-6.4-1.56-9.86-3.32,3.55-.96,6.88-.35,10.18,0,4.95-4.49,5.65-7.42,7.83,1.32-3.33-2.79-2.76-3.37-4.7-.36-1.21.68-3.53-1.97-2.9-2.05.48-1.07,2.45-1.25,3.81-.12.92-.2,1.86-.29,2.78-.72-.09-1.44-.19-2.16-.28-.09-1.46-.19-2.92-.28-4.38,2.92-7.95-1.74-16.27,1.19-24.25.48-1.3-.47-2.11-1.84-2.24-2.52-1.92-6.1-3.9-4.69-7.43,1.51-3.76,4.59-6.84,10.17-6.79-1.86-2.06-3.27-3.63-4.69-5.19,0-2.39,0-4.77-.01-7.16l-.06.07c3.48-.74,6.51.41,9.36,2.28l-.07-.03c.64,3.16,4.86,2.01,5.8,4.81.02.57.03,1.14.05,1.7-1.26,2.35-3.67,4.9,1.1,6.17l-.04-.04c-.25,1.05.38,1.21,1.19,1.17l-.04-.03c6.15,3.18,13.21,2.48,19.6,4.62,0,0,0,0,0,0-.02.4-.03.8-.05,1.2-2.85,2.87-3.82,7.36-8.09,9.03-6.19,2.42-8.59,9.32-5.22,14.62,1.27,2,2.92,1.94,4.09-.14l-.05.08c.91-.53,1.19-1.38,1.21-2.37,0,0-.05.07-.05.07,1.63-.23,2.08-2.68,4.89-2.13v17.76c-.21,3.66.49,7.59-3.14,10.2Z"/>
    <path class="cls-12" d="M287.48,567.19c.08,2.19-.65,4.21-1.85,5.92-3.48,4.97-3.12,10.35-2.24,15.9.29,1.81,1.11,2.4,2.67,1.84,4.41-1.59,3.49,1.79,4.57,4.16,3.46,7.59,2.8,16.61,8.32,23.41.95,1.17,1.93,2.83,3.6,2.52,5.89-1.08,6.93,4.41,9.98,7.13,1.44,1.28.79,2.67-.2,4.06-.78,1.1-1.67,3.01-2.85,2.16-3.02-2.16-5.21.15-7.77,1.18.68-7.43-2.77-11-10.72-11.52-1.83-.12-2.75-1.6-3.27-2.81-2.47-5.79-6.39-10.66-9.74-15.89-.99-1.55-1.05-4.48-3.08-4.44-2.86.05-.96,3.68-3.18,5.38-.76-6.64-.78-12.84,2.24-18.67,2.93-5.65,3.08-11.49,2.34-17.64-.24-1.95,3.48-2.58,3.42-5.17,2.51.14-1.34,6.73,4.03,3.97.4-.55.79-1.11,1.19-1.66,0,0,0,0,0,0,.85.12,1.82-1.62,2.56.17Z"/>
    <path class="cls-14" d="M398.21,479.64c-5.59.07-9.51-4.87-8.23-10.35,1.59-6.82,15.02-14.33,21.51-11.91,2.58.96,2.74,2.61,1.19,4.94-1.85,2.78-3.81,5.51-3.68,9.3.08,2.39-8.04,7.99-10.79,8.02Z"/>
    <path class="cls-8" d="M214.75,543.36c-1.82-5.83.98-9.92,2.04-14.28.17-.72,1.31-1.54,2.12-1.69,1.65-.31,1.35,1.39,1.87,2.28,1.4,2.42.32,4.49-1.09,6.3-1.68,2.14-3.79,3.95-4.94,7.39Z"/>
    <path class="cls-8" d="M134.95,235.55c-3.09-4.6-5.57-9.34-4.33-15.2.34-1.59-.98-1.74-2.18-1.76.01-.8.02-1.59.03-2.39,1.97.05,4.86.67,4.12,2.64-2.22,5.89,2.48,9.58,3.63,14.34.29,1.19.45,2.28-1.27,2.37Z"/>
    <path class="cls-3" d="M287.48,567.19c-.74-1.8-1.71-.06-2.56-.17.01-.75.03-1.5.04-2.26,1.41-2.61,4.6-4.44,3.61-8.12-.07-1.32-.13-2.63-.2-3.95,1.31,2,2.62,4.02,5.54,2.64-1.56,4.27-2.92,8.65-6.43,11.86Z"/>
    <path class="cls-3" d="M197.49,417.68c.1-.93.17-1.86.29-2.78.18-1.36-.8-3.33,1.25-3.81,2.66-.63,1.61,1.69,1.97,2.9.58,1.94,4.69,1.38,3.37,4.7-2.25-.65-5.19,3.41-6.88-1.01Z"/>
    <path class="cls-4" d="M278.62,545.09c-3.42,2.43-2.28,5.48-3.43,7.76-.52,1.04-1.42,2.53-2.96,2.23-1.46-.28-1.72-1.83-2.07-3.07-.6-2.16.6-1.74,2.19-2.02,1.94-.34,2.31-2.66,2.56-4.6.1-.8.84-1.22,1.7-1.02.52.12,1.01.36,1.99.72Z"/>
    <path class="cls-12" d="M288.57,556.65c.99,3.68-2.2,5.51-3.61,8.12-.37-3.19-2.92-2.03-4.72-2.36.57-1.15,1.14-2.31,1.71-3.46,2.61.39,4.94-.03,6.61-2.3Z"/>
    <path class="cls-2" d="M280.24,562.41c1.8.33,4.35-.83,4.72,2.36-.01.75-.03,1.5-.04,2.26,0,0,0,0,0,0-.97.14-1.22.8-1.19,1.66-5.37,2.76-1.52-3.83-4.03-3.97-.39-.9-.3-1.69.53-2.31Z"/>
    <path class="cls-3" d="M211.79,410.87c-.61-3.3-2.97-6.63.35-10.18.55,3.46,1.05,6.66,1.56,9.86-.63.11-1.27.21-1.9.32Z"/>
    <path class="cls-3" d="M195.05,413.02c.09,1.46.19,2.92.28,4.38-1.02.06-2.03.12-2.47,1.29l.03-.03c-.99-1.07-.77-2.08.14-3.06,1.08-.55,1.03-1.63,1.22-2.59,0,0,.4,0,.4,0h.4Z"/>
    <path class="cls-3" d="M189.47,414.31c1.33-.7,2.24-.33,2.72,1.09-1.32.67-2.28.42-2.72-1.09Z"/>
    <path class="cls-14" d="M504.1,291.6c.51.36,1.71.46,1.11,1.33-.48.69-1.3.1-1.79-.52.22-.27.45-.54.68-.81Z"/>
    <path class="cls-3" d="M192.86,418.69c.13.07.25.14.38.21-.12-.08-.23-.16-.35-.24,0,0-.03.03-.03.03Z"/>
    <path class="cls-14" d="M755.71,623.4c.37.38.74.75,1.11,1.13-.37-.38-.74-.75-1.11-1.13Z"/>
    <path class="cls-14" d="M490.93,197.81c-.06.17-.12.34-.18.51.08-.15.17-.29.25-.44,0,0-.08-.07-.08-.07Z"/>
    <path class="cls-6" d="M128.18,309.37c.23-3.93.94-7.62,4.76-9.81.79-.3,1.26-.83,1.23-1.71,0,0-.05.04-.05.04,4.63-1.5,9.25-3,13.88-4.5,0,0-.06-.05-.07-.05,3.23,5.13,5.81,10.73,10.55,14.79.02.57-.09,1.6.08,1.65,5.64,1.63,5.11,8.17,8.95,11.18,3.46,1.4,3.07,7.3,8.06,6.92,0,0-.01-.02-.01-.02,1.88,4.83,4.68,7.96,10.43,5.66,2.29,4.39,6.63,4.51,11.35,5-2.8,4.78-2.15,9.72-2.1,14.6-.44.74-.88,1.49-1.32,2.23l-8-1.08s.04.05.04.05c-.56-4.27-3.17-.48-4.64-1.18l.03.03c.03-2.53-2.33-2.65-3.77-3.51-4.05-2.42-8.24-4.61-12.38-6.89,0,0,.03.05.03.05,1.04-6.33-1.84-8.86-9.24-8.09,0,0,.08.04.08.04-5.4-1.34-8.54-5.65-12.46-9.07-5.71-4.97-8.65-12.46-15.43-16.34Z"/>
    <path class="cls-8" d="M294.16,406.02c-2.82-4.64-6.01-7.89-11.69-3.66-.75.56-2.07-.42-1.91-1.45,1.29-8.14,1.78-16.12,9.16-22.41,6.58-5.61,6.73-15.03,4.95-22.72-.67-2.9-3.37-6.74-4.78-10.37-.37-.94-1.43-2.07-2.34-2.25-1.66-.32-1.87,1.57-2.47,2.61-.65,1.15.02,3.37-2.54,2.73-.03-1.85,1-3.72-.09-5.55h.02c5.61-4.16,9.11-3.14,9.85,4.12.37,3.58,3.96,3.71,4.1,6.49.57,11.51,1.76,23.25-9.01,31.5-4.72,3.62-3.26,8.5-2.81,13.12.16,1.59,1.9.98,2.83.83,5.67-.87,7.54,1.74,6.73,7.01Z"/>
    <path class="cls-8" d="M137.59,288.81c-1.38.71-2.31-.33-2.87-1.13-2.49-3.58-4.09-7.95-9.16-8.98-.54-.11-1.2-1.67-1.12-2.49.55-5.87.17-11.67-.47-17.51-.3-2.79,1.87-2.77,3.28-1.3,4.73,4.96,4.75.18,5.59-2.61.69-2.28-.06-4.45-.83-6.67-.98-2.83-1.83-5.87.98-8.35.12,3.38-.24,6.57,2.95,9.37,3.12,2.73.39,10.81-3.85,11.56-3.41.6-4.07,1.04-4.98,5.08-1.08,4.79.08,7.61,2.29,10.8,1.59,2.29,6.36,1.71,5.73,6.17,4.54.52,1.43,4.12,2.44,6.06Z"/>
    <path class="cls-8" d="M352.88,416.4c-1.17,5.1-5.02,7.64-12.11,6.7-3.89-.52-7.66,2.59-11.73-.41-1.3-.96-2.35,2.24-2.68,4.09-1.6-.53-2.91-2.97-4.89-.97-1.78,1.79-.59,3.89-.25,5.88.54,3.15,1.82,7.11-.48,9.2-2.82,2.55-5.67-.59-8.17-2.42-.23-.17-.73.04-1.11.07,0-1.23.02-2.47.02-3.7.14-.18.29-.36.43-.54-.18.14-.36.29-.54.43-.37.02-.74.04-1.11.05l-.18-.2c2.5-4.31,4.2-3.61,5.61.77.44,1.38-.3,4.17,2.43,3.64,2.35-.46,1.1-2.85,1.35-4.39.12-.74.06-1.53,0-2.29-.58-8.58-.56-8.53,7.68-11.8,1.58-.63,2.85-.86,4.22.3.56.47,1.83,1.09,1.9,1,3.19-4.42,7.58-1.23,11.31-1.61,3.83-.4,5.75-2.96,8.27-4.99,0,.4.01.8.02,1.19Z"/>
    <path class="cls-3" d="M195.24,353.13c-.05-4.88-.71-9.81,2.1-14.6-4.72-.49-9.06-.61-11.35-5-.02-.35-.02-.71-.03-1.06,1.24-.1,2.23.44,3.06,1.28,2.37,2.39,4.25,3.19,5.69-.98.48-1.39,3.24-3.52,3.52-2.84,1.24,3.1,7.73.29,6.27,5.79-.18.2-.38.39-.59.56-2.21-.32-3.55.13-4.75,2.54-2.29,4.6-3.31,9.23-2.72,14.28-.4,0-.81.01-1.21.02Z"/>
    <path class="cls-8" d="M308.67,436.27c-3.71.23-6.48-.63-6.44-5.17.02-2.09-1.43-3.07-3.34-3.21-3.87-.29-4.22-2.27-3.12-5.5,1.1-3.24,4.24-6.94-1.95-9.07-1.7-.58-1.08-3.33.38-4.92,1.29.74.12,2.81.91,2.98,7.57,1.68,4,6.56,3.2,10.63-.14.73-.61,1.42-.61,2.13,0,.45.62,1.29.92,1.27,6.64-.43,4.14,10.53,11.46,9.16,0,0,.18.2.18.2-.53.5-1.07.99-1.6,1.49Z"/>
    <path class="cls-4" d="M244.8,338.32c.61-3.67.79-7.81,6.5-5.68,2.07.77,1.73-1.51,2.64-2.22,3.3-2.55,6.35-6.13,10.99-2.23,1.07.9,2.49.87,3.84.72.26.26.52.52.78.77-1.23,3.54-3.21,1.87-5.31.92-1.72-.78-3.74-3-5.54-.58-3.53,4.72-9.81,4.64-13.86,8.35l-.03-.04Z"/>
    <path class="cls-4" d="M211.24,336.96c1.16-4.45,3.7-5.05,7.63-3.08,3.55,1.78,6.41,5.12,11,4.79,1.33-.09,2.03,1.51,2.09,2.97-.57-.01-1.14-.03-1.71-.04-3.41-.98-8.14-.92-9.92-3.18-3.17-4.02-5.81-1.89-8.85-1.19l-.24-.27Z"/>
    <path class="cls-3" d="M274.57,326.73c1.56,0,2.94.04,3.44,2.08.98,3.95,2.21,7.84,3.33,11.75-1.17,0-2.44-.34-3.27.9-1.63-.06-2.94-1.14-2.21-2.47,2.26-4.13-.72-7.41-1.31-11.06,0-.4,0-.8.01-1.21Z"/>
    <path class="cls-8" d="M147.99,293.4c-4.63,1.5-9.25,3-13.88,4.5,1.31-2.98,5.21-4.99,3.43-9.13,2.63,1.76,5,4.28,8.74,2.69.25-.11,1.13,1.26,1.71,1.95Z"/>
    <path class="cls-4" d="M204.5,335.73c1.33,1.94,3,3.08,5.47,2.26.14.14.29.28.44.41-1.84,4.14-7.23,6.7-5.53,12.42-.46-.02-.92-.04-1.38-.06-2.09-4.89,1.35-9.62.41-14.47.21-.17.41-.35.59-.56Z"/>
    <path class="cls-8" d="M376.1,434.79c-8.01-2.02-9.42-5.52-6.04-14.99,3.19-1.21,2.61,1.58,1.97,2.46-3.4,4.71-2.09,7.77,2.8,10.12.66.32.86,1.59,1.27,2.41Z"/>
    <path class="cls-8" d="M158.48,308.13c-4.74-4.06-7.31-9.66-10.55-14.79.74.05,1.87-.19,2.16.2,2.95,3.97,5.78,8.03,8.6,12.1.56.81.72,1.73-.21,2.49Z"/>
    <path class="cls-4" d="M175.57,327.89c-4.99.37-4.59-5.52-8.06-6.92,6.71-2.37,6.41,3.41,8.06,6.92Z"/>
    <path class="cls-8" d="M230.26,341.6c.57.01,1.14.03,1.7.04,1.52,2.1,3.99.69,5.84,1.57.12.5.24,1.01.36,1.51-1.47.14-2.98.54-4.41.36-4.27-.54-2.11,1.79-1.64,3.41-5.67-.94-2-4.39-1.86-6.89Z"/>
    <path class="cls-4" d="M185.96,332.47c0,.35.01.71.03,1.06-5.75,2.3-8.55-.83-10.43-5.66,2.5-.41,3.51,2.56,5.83,2.56.11,1.48,1.01,1.99,2.37,1.94.73.04,1.46.07,2.2.11Z"/>
    <path class="cls-4" d="M352.88,416.4c0-.4-.01-.8-.02-1.19,3.99-4.32,4.53-4.24,8.1,1.15-2.68,1.62-5.4-2.46-8.08.04Z"/>
    <path class="cls-4" d="M238.16,344.72c-.12-.51-.24-1.01-.36-1.52.62-4.06,3.42-5.03,7-4.89,0,0,.04.04.04.04-2.22,2.12-4.45,4.24-6.67,6.37Z"/>
    <path class="cls-4" d="M274.57,326.73c0,.4,0,.8-.01,1.21-2.05-.51-3.4.99-5.01,1.73-.26-.26-.52-.51-.78-.77.98-3.26,2.72-4.52,5.8-2.17Z"/>
    <path class="cls-3" d="M183.76,332.36c-1.36.05-2.27-.46-2.37-1.94.08-.79-1.13-1.86.21-2.33,1.28-.45,1.39.52,1.43,1.59.04.9.48,1.78.74,2.67Z"/>
    <path class="cls-15" d="M494.29,291.05c.88.14,1.75.27,2.63.41-.08.27-.18.76-.25.76-.91-.03-1.81-.13-2.72-.22.11-.32.23-.64.34-.96Z"/>
    <path class="cls-8" d="M278.08,341.47c.83-1.25,2.09-.91,3.27-.9.18.26.3.55.33.87-.26.32-.52.63-.78.95-.94-.31-1.88-.61-2.82-.92Z"/>
    <path class="cls-8" d="M281.68,341.43c.27.5.54,1,.8,1.51,0,0-.02.01-.02.01-.52-.19-1.05-.38-1.57-.57l.78-.95Z"/>
    <path class="cls-4" d="M209.97,337.99c.42-.34.85-.68,1.27-1.03,0,0,.24.27.24.27-.36.39-.71.78-1.07,1.17-.15-.13-.3-.27-.44-.41Z"/>
    <path class="cls-15" d="M508.21,325.48c-.07.13-.12.28-.22.39-.05.05-.19.02-.29.03.19-.11.39-.22.58-.34,0,0-.07-.08-.07-.08Z"/>
    <path class="cls-3" d="M128.18,309.37c6.78,3.88,9.72,11.37,15.43,16.34,3.93,3.42,7.07,7.72,12.46,9.07-1.73-.49-2.96,2.04-5.18.32-9.22-7.16-16.48-15.97-22.71-25.72Z"/>
    <path class="cls-5" d="M195.05,413.02h-.4s-.4,0-.4,0c-.57-6.32-.36-12.69-1.74-18.99-.49-2.25,1.19-4.98,1.88-7.49,1.37.13,2.32.94,1.84,2.24-2.93,7.98,1.74,16.3-1.19,24.25Z"/>
    <path class="cls-3" d="M165.2,342.78c4.14,2.28,8.33,4.47,12.38,6.89,1.45.86,3.81.98,3.77,3.51-4.53-2.1-9.13-4.08-13.57-6.38-1.38-.72-2.7-2.06-2.59-4.02Z"/>
    <path class="cls-11" d="M195.24,353.13c.4,0,.81-.01,1.21-.02,1.25,2.04,2.7,4.09,5.19,4.4,3.3.41,3.09,2.49,2.84,4.79-2.85-1.87-5.87-3.02-9.36-2.28.71-1.1,1.68-2.11,1.22-3.6-.8-.35-1.61-.71-2.41-1.06.44-.74.88-1.49,1.32-2.23Z"/>
    <path class="cls-3" d="M156,334.73c7.4-.76,10.28,1.76,9.24,8.09-1.97-3.96-4.84-6.89-9.24-8.09Z"/>
    <path class="cls-3" d="M193.92,355.36c.8.35,1.61.71,2.41,1.06-3.89,1.31-7.51,1.34-10.42-2.14l8,1.08Z"/>
    <path class="cls-11" d="M195.18,359.96c0,2.39,0,4.77.01,7.16-3.37-2.38-4-4.77-.01-7.16Z"/>
    <path class="cls-3" d="M181.32,353.15c1.47.7,4.08-3.1,4.64,1.18-1.5-.59-3.62,1.29-4.64-1.18Z"/>
    <path class="cls-8" d="M134.17,297.85c.03.88-.44,1.41-1.23,1.71.01-.86-.14-1.83,1.23-1.71Z"/>
    <path class="cls-7" d="M204.48,362.3c.26-2.3.46-4.37-2.84-4.79-2.49-.31-3.94-2.36-5.19-4.4-.59-5.05.43-9.68,2.72-14.28,1.2-2.41,2.54-2.86,4.75-2.54.94,4.86-2.5,9.59-.41,14.48.36,2.2,1.73,3.15,3.88,3.48,7.05,1.09,14.06,2.52,21.14,3.36,3.66.43,6.22-1.33,5.78-5.63.44-1.95,0-3.34-2.28-3.53l.08.04c-.47-1.61-2.63-3.95,1.64-3.41,1.43.18,2.94-.22,4.41-.36,2.22-2.12,4.45-4.24,6.67-6.37,4.05-3.71,10.33-3.63,13.86-8.35,1.8-2.41,3.82-.2,5.54.58,2.1.95,4.08,2.63,5.31-.92,1.61-.75,2.96-2.24,5.01-1.73.59,3.65,3.57,6.93,1.31,11.06-.73,1.33.58,2.41,2.21,2.47.94.31,1.88.61,2.82.92.52.19,1.05.38,1.57.57,1.09,1.83.05,3.7.09,5.55,0,0,.07-.06.07-.06-2.56,1.07-5.05,2.19-3.46,5.75-4.26,1.1-9.37.51-11.54,5.78,0,0,.06-.04.06-.04-1.28-.59-1.96,0-2.35,1.19,0,0,.03-.03.03-.03-2.95.72-5.42,2.1-5.36,5.52.05,2.94-1.15,5.54-1.58,8.33,0,0,.03-.04.03-.04-5.83,3.86-4.24,10.92-6.95,16.13,0,0,.02-.03.02-.03-3.14,1.24-2.81,7.31-7.98,5.74,0,0,.03.02.04.02-1.45-1.82-4.29-1.33-4.02-.02.77,3.86-1.92,7.28-.74,10.98-.52.42-1.03.84-1.55,1.26-.35-.04-.69-.12-1.01-.25l-.24-.94c.03.33.06.65.09.98-1.25,2.75.14,5.92-1.44,8.63-.93,1.59-1.52,3.83-3.76,1.22-.25-5.29-.33-10.59-.83-15.86-.19-2.03.51-5.46-2.65-5.49-3.42-.03-3.81,3-3.52,5.86,0,0,.05-.07.05-.07-1.14.42-1.33,1.31-1.21,2.37,0,0,.05-.08.05-.08-5.07-4.31-4.43-9.73,1.32-12.04,5.18-2.09,7.3-6.76,9.22-11.52-.1-.74-.18-1.49-1.26-1.16,0,0,0,0,0,0,.22-1.18-.67-2.02-1.45-2.01-6.19.05-11.83-3.69-18.15-2.61l.04.03c.24-1.04-.48-1.1-1.19-1.17l.04.04c-1.79-1.8-.59-4.14-1.1-6.17-.02-.57-.03-1.14-.05-1.71,1.03-5.44.57-5.81-5.8-4.81l.07.03Z"/>
    <path class="cls-3" d="M278.03,485.37c2.81,3.24,3.96,7.89,6.18,10.75,5.31,6.84-2.34,10.73-1.82,16.19.23,2.4-2.98,2.98-5.41,2.84,6.72-7.78,7.29-16.13,2.31-24.99-.84-1.49-1.72-2.97-1.25-4.8Z"/>
    <path class="cls-3" d="M291.86,453.16c.8,4.08-1.63,5.15-4.89,4.71-5.65-.77-8.06,1.68-8.18,7.14-.09,4.25-2.6,7.67-4.22,11.39-2.09-2.19-4.38-3.87.18-6.5,1.7-.98,1.55-5.16,2.28-7.87,1.05-3.88,2.19-7.42,7.66-5.6,3.09,1.03,5.34-.95,7.17-3.28Z"/>
    <path class="cls-4" d="M308.67,436.27c.53-.5,1.07-.99,1.6-1.49.37-.01.74-.03,1.11-.05l.11.1c0,1.23-.02,2.47-.02,3.7-2.01,1.96-1.53,5.49-4.36,6.93-2.73,1.38-1.92,3.6-1.39,5.76-3.72-1.54-7.15.87-10.77.8.71-1.33-.13-3.24,2.89-3.51,5.62-.5,9.78-5.78,10.84-12.23Z"/>
    <path class="cls-8" d="M230.9,418.65c2.24,2.61,2.83.37,3.76-1.22,1.58-2.71.19-5.89,1.44-8.63,0,0,.15-.04.15-.04.33.13.67.21,1.01.25-1.1,5.37,1.17,12.19-6.78,14.61-1.57.48-.56,3.16-.92,4.79-.76,3.36-2.19,3.19-3.92.59,3.63-2.61,2.93-6.54,3.14-10.2.7-.05,1.41-.09,2.11-.14Z"/>
    <path class="cls-3" d="M251.5,391.05c2.71-5.21,1.12-12.26,6.95-16.13-2.27,5.39-1.5,12.1-6.95,16.13Z"/>
    <path class="cls-3" d="M284.93,530.2c1.27,1,2.14,2.44,2.13,3.9-.04,6.24.56,12.41,1.36,18.58-2.73-3.97-4.59-8.05-2.62-13.05,1.26-3.19-1.29-6.21-.88-9.43Z"/>
    <path class="cls-3" d="M258.42,374.96c.43-2.79,1.64-5.39,1.58-8.33-.06-3.42,2.41-4.8,5.36-5.52-1.94,3.1-4.04,6.06-4.08,10.04-.02,1.53-.72,3.43-2.86,3.81Z"/>
    <path class="cls-3" d="M277.24,518.83c3.13,3.45,5.49,7.41,7.74,11.45-5.68-1.72-6.81-6.52-7.74-11.45Z"/>
    <path class="cls-3" d="M267.62,359.99c2.17-5.27,7.28-4.68,11.54-5.78-.03,1.23-.06,2.46-.09,3.7-4.57-3.42-7.55,1.86-11.45,2.08Z"/>
    <path class="cls-3" d="M243.54,396.76c5.17,1.57,4.84-4.5,7.98-5.74-.05,2.71-.58,5.5-2.54,7.27-2.04,1.84-4.18,1-5.43-1.53Z"/>
    <path class="cls-8" d="M279.08,357.9c.03-1.23.06-2.46.09-3.7-1.59-3.57.9-4.68,3.46-5.75-1.22,3.07-2.67,5.87-1.64,9.6.51,1.84-1.27,1.65-1.91-.15Z"/>
    <path class="cls-4" d="M238.82,407.75c-1.19-3.7,1.51-7.12.74-10.98-.26-1.32,2.58-1.81,4.02.02-3.05.49-1.94,3.04-2.47,4.83-.62,2.09-.5,4.48-2.29,6.13Z"/>
    <path class="cls-3" d="M265.33,361.14c.38-1.18,1.06-1.78,2.35-1.19-.41,1.13-1.23,1.45-2.35,1.19Z"/>
    <path class="cls-4" d="M293.26,451.96c-.15.79-.62,1.2-1.43,1.24.14-.8.66-1.17,1.43-1.24Z"/>
    <path class="cls-3" d="M276.57,484.19c.5.41,1,.82,1.5,1.22-.5-.41-1-.82-1.5-1.22Z"/>
    <path class="cls-16" d="M305.71,451.21c-.53-2.16-1.34-4.37,1.39-5.76,2.83-1.43,2.35-4.97,4.36-6.93.38-.03.88-.24,1.11-.07,2.49,1.83,5.35,4.97,8.17,2.42,2.31-2.09,1.03-6.05.48-9.2-.34-1.98-1.53-4.08.25-5.88,1.98-2,3.29.45,4.89.97,0,0,0-.03,0-.03-.15,1.07.37,1.81,1.19,2.4-.25,1.74,1.4,2.17,2.2,3.2.68,2.29,2.58,4.21,1.37,7.06-.59,1.38.63,2.81,2.16,3.49,0,0-.03-.05-.03-.05,1.57,5.15,4.81,6.4,8.97,3.36,1.19-.87,2.41-.95,3.74-.83-.05.29-.06.58-.03.88.72,3.81.16,8.11,4.42,10.53.4.23-.15,2.14-.27,3.28l-.28-.08s-.29.03-.29.03c-2.37,1.53-8.25-2.27-7.04,4.65,0,0-.02-.02-.02-.02-.97.06-2.19.3-1.75,1.47.86,2.28,2.7,3.42,5.23,3.23,0,0-.02-.03-.02-.03,1.97,4.45,6.91,6.25,9.24,10.37,0,0-.03-.02-.03-.02-.13,1.67.97,2.24,2.32,2.58-.03,2.78-.14,5.61,3.37,6.58.42.79.85,1.59,1.27,2.38.37,1.09,1.12,1.81,2.17,2.24.82,1.52,1.64,3.05,2.46,4.57.27.78.54,1.56.81,2.33.2,2.28.96,3.95,3.73,3.48,0,0,0,0,0,0,0,2.31,2.02,2.59,3.46,3.46,0,0-.03-.02-.03-.02,1.5,2.65-2.37,5.95,1.14,8.46,2.2,1.57,1.56,3.82,1.66,6.32.2,5.3-4.61,5.39-6.57,8.21,0,0-.46,0-.47,0-1.02-3.29-2.78-3.75-6.05-2.48-3.05,1.19-3.09,3.95-4.54,5.96-.35-.02-.71-.03-1.06-.02-.74-1.91-3.33-.54-4.18-2.27,4.31-5.34,5.25-17.15,1.42-22.53-1.77-2.5-4.41-4.38-6.65-6.54-3.8-3.91.15-7.94-.06-11.94-.15-2.89-.45-4.75-3.56-5.18-.32-.34-.64-.68-.96-1.02,0,0,.04.05.04.05.16-2.57-1.19-4.45-3.05-5.87-5.05-3.88-8.71-2.71-9.63,2.94,0,0,.06.16.06.16-1.08.33-2.25.5-2.87,1.63,0,0-.1-.04-.1-.04-1.73-.39-3.46-.78-5.2-1.17,0,0,.07.05.07.05-.4-.4-.8-.8-1.21-1.21,0,0,.04.05.04.05-.08-.95-.2-2.03-1.46-1.8-.38.07-.57,1.17-.85,1.79l.03-.03c-1.05-.15-1.92.07-2.34,1.17,0,0,.03-.02.03-.02-1.62-.06-2.4.7-2.33,2.33l.03-.03c-1.16-.14-2.06.16-2.37,1.42-.34,2.74-2.22,3.88-4.42,2.79-2.7-1.34-.08-2.63.59-3.96.58-1.15.85-2.46,1.26-3.7,3.01-3.74,2.33-8.52,3.46-12.77,1.6-5.98.34-7.2-5.85-8.04-1.1-.15-2.15-.7-3.22-1.07-1.17-1.02-.81-1.77.41-2.37,1.24-.32,2.48-.65.91-2.16-.37-1.06-.75-2.12-1.12-3.18Z"/>
    <path class="cls-3" d="M349.36,502.36c2.24,2.16,4.88,4.05,6.65,6.54,3.82,5.39,2.89,17.19-1.42,22.53.86,1.73,3.44.36,4.18,2.27-3.08.25-6.04-.05-8.55-2.12-3.01-2.49-6.56-.85-9.84-1.31-2.48-.35-5.46.89-7.01-2.29,6,1.45,12.12-.35,18.22.93,3.96.83,4.34-3.4,4.37-5.94.04-2.74-1.23-5.4.58-8.14,1.1-1.67-1.33-1.92-1.82-3.01-1.5-3.32-6.7-4.55-5.36-9.47Z"/>
    <path class="cls-11" d="M305.51,458.91c1.07.37,2.12.92,3.22,1.07,6.2.84,7.45,2.06,5.85,8.04-1.14,4.25-.46,9.04-3.46,12.77-1.85-5.18,2.26-9.74,1.52-14.84-.35-2.38.52-5.32-3.86-3.72-2.6.95-3.18-1.21-3.27-3.32Z"/>
    <path class="cls-3" d="M332.14,481.34c.91-5.65,4.58-6.82,9.63-2.94,1.86,1.42,3.21,3.3,3.05,5.87-1.23-.07-1.84-.79-2.54-1.8-3.35-4.82-5.74-5.03-10.13-1.13Z"/>
    <path class="cls-3" d="M324.04,481.93c1.73.39,3.46.78,5.2,1.17-2.83,4.52-3.77.59-5.2-1.17Z"/>
    <path class="cls-4" d="M306.83,454.39c1.56,1.51.33,1.84-.91,2.16-.04-.86.08-1.66.91-2.16Z"/>
    <path class="cls-3" d="M320.63,480.82c.28-.63.46-1.72.85-1.79,1.26-.24,1.38.85,1.46,1.8h-2.31Z"/>
    <path class="cls-3" d="M316.03,484.27c-.08-1.63.71-2.39,2.33-2.33-.34,1.21-1.2,1.9-2.33,2.33Z"/>
    <path class="cls-16" d="M347.3,489.13c.04.14.15.37.1.41-.13.1-.31.12-.48.16-.04-.14-.15-.37-.1-.41.12-.1.31-.11.48-.16Z"/>
    <path class="cls-16" d="M346.4,494.27c.14.05.39.1.39.15,0,.16-.09.32-.15.48-.14-.05-.39-.1-.4-.15,0-.16.09-.32.15-.48Z"/>
    <path class="cls-3" d="M318.32,481.96c.42-1.11,1.29-1.33,2.34-1.17-.46,1.02-1.36,1.19-2.34,1.17Z"/>
    <path class="cls-3" d="M329.34,483.13c.62-1.14,1.78-1.31,2.87-1.63-.3,1.69-1.55,1.72-2.87,1.63Z"/>
    <path class="cls-3" d="M313.69,485.66c.32-1.26,1.21-1.56,2.37-1.42-.41,1.11-1.39,1.27-2.37,1.42Z"/>
    <path class="cls-3" d="M322.9,480.77c.4.4.8.8,1.21,1.21-.4-.4-.8-.8-1.21-1.21Z"/>
    <path class="cls-3" d="M344.77,484.22c.32.34.64.68.96,1.02-.32-.34-.64-.68-.96-1.02Z"/>
    <path class="cls-4" d="M349.18,577.41c-.25-3.78.6-6.39,5.31-5.7,3.79.56,4.75-1.59,3.93-4.87-.32-1.3-1.2-3.18.38-3.51,6.71-1.36,11.47-7.11,18.37-7.86-2.81,5.04-8.56,6.27-12.94,8.81-3.86,2.25-3.88,3.2-1.75,6.05.77,1.03,2.17,1.88,1.14,3.43-1.01,1.51-2.61,1.67-4.1,1.11-4.07-1.52-7.31,0-10.34,2.54Z"/>
    <path class="cls-4" d="M370.89,530.26c1.97-2.82,6.77-2.91,6.57-8.21-.09-2.5.55-4.75-1.66-6.32-3.51-2.51.35-5.81-1.14-8.46,1.44,0,3,.43,3.09,1.92.54,8.57,3.22,17.23-.76,25.67-1.28-2.53-1.44-6.55-6.1-4.6Z"/>
    <path class="cls-4" d="M350.08,460.06c.11-1.13.67-3.05.27-3.28-4.26-2.43-3.7-6.73-4.42-10.53,4.99,2.65,7.31,10.37,4.16,13.81Z"/>
    <path class="cls-4" d="M345.95,445.37c-1.33-.12-2.55-.04-3.74.83-4.16,3.04-7.4,1.79-8.97-3.36,2.53,2.03,5.14,3.24,8.28,1.13,1.96-1.32,3.6-1.08,4.43,1.4Z"/>
    <path class="cls-4" d="M355.14,479.68c-2.33-4.12-7.27-5.92-9.24-10.37,5.84,1,8.63,4.72,9.24,10.37Z"/>
    <path class="cls-4" d="M333.27,442.89c-1.53-.69-2.75-2.11-2.16-3.49,1.21-2.85-.7-4.77-1.37-7.06,2.57-.03,3.75,1.13,3.58,3.79-.15,2.24-.04,4.5-.05,6.76Z"/>
    <path class="cls-4" d="M342.46,464.67c-1.2-6.92,4.68-3.13,7.04-4.65-.63,4.15-6.09.99-7.04,4.65Z"/>
    <path class="cls-4" d="M345.92,469.34c-2.53.19-4.37-.95-5.23-3.23-.44-1.17.78-1.41,1.75-1.47.51,2.05,3.65,2.15,3.48,4.7Z"/>
    <path class="cls-4" d="M366.69,498.02c-.82-1.52-1.64-3.05-2.46-4.57,2.15,0,3.62,1.15,4.25,3.05.4,1.21-.83,1.42-1.79,1.52Z"/>
    <path class="cls-4" d="M371.23,503.83c-2.77.47-3.53-1.2-3.73-3.48,1.65.72,3.7,1.01,3.73,3.48Z"/>
    <path class="cls-4" d="M374.7,507.29c-1.44-.86-3.46-1.15-3.46-3.46,2.28.03,3.39,1.22,3.46,3.46Z"/>
    <path class="cls-4" d="M378.16,539.42c-1.72-1.18-1.15-2.95-1.16-4.56,1.8,1.16,1.03,2.98,1.16,4.56Z"/>
    <path class="cls-4" d="M357.43,482.25c-1.35-.34-2.45-.91-2.32-2.58,1.75-.02,2.44.91,2.32,2.58Z"/>
    <path class="cls-4" d="M362.06,491.21c-.42-.79-.84-1.59-1.27-2.38,1.09.43,1.23,1.38,1.27,2.38Z"/>
    <path class="cls-4" d="M377.87,555.54c.08-.8.17-1.61.25-2.41,1.37.95,1.34,1.76-.25,2.41Z"/>
    <path class="cls-8" d="M327.54,429.14c-.82-.59-1.34-1.33-1.19-2.4,1.12.44,1.15,1.42,1.19,2.4Z"/>
    <path class="cls-4" d="M378.16,549.82c-.37-.38-.74-.76-1.11-1.14.37.38.74.76,1.11,1.14Z"/>
    <path class="cls-4" d="M378.11,551.11c.01-.43.02-.86.04-1.29,1.05.46.68.88-.04,1.29Z"/>
    <path class="cls-3" d="M359.83,533.73c1.45-2,1.49-4.77,4.54-5.96,3.28-1.27,5.03-.81,6.05,2.48-3.4-.55-7.59-2.53-6.66,4.16.13.94-1.35,2.48-2.9,2.17-1.49-.31-1.05-1.76-1.04-2.85Z"/>
    <path class="cls-11" d="M233.33,381.83c-1.93,4.76-4.04,9.43-9.22,11.52-5.75,2.32-6.39,7.74-1.32,12.04-1.16,2.08-2.82,2.14-4.09.14-3.37-5.31-.97-12.21,5.22-14.62,4.28-1.67,5.25-6.16,8.09-9.03.44-.02.88-.03,1.31-.05Z"/>
    <path class="cls-11" d="M230.9,418.65c-.7.05-1.41.09-2.11.14,0-5.94,0-11.88,0-17.76-2.8-.55-3.25,1.9-4.89,2.13-.29-2.86.1-5.89,3.52-5.86,3.16.03,2.46,3.46,2.65,5.49.5,5.26.58,10.57.83,15.86Z"/>
    <path class="cls-3" d="M212.47,376.06c6.32-1.08,11.95,2.66,18.15,2.61.78,0,1.67.83,1.45,2.01-6.39-2.14-13.46-1.43-19.6-4.62Z"/>
    <path class="cls-11" d="M204.41,362.26c6.38-1,6.83-.62,5.8,4.81-.94-2.8-5.16-1.65-5.8-4.81Z"/>
    <path class="cls-3" d="M210.26,368.78c.51,2.03-.69,4.37,1.1,6.17-4.77-1.27-2.36-3.83-1.1-6.17Z"/>
    <path class="cls-11" d="M222.74,405.47c-.12-1.06.08-1.95,1.21-2.37-.03.98-.31,1.84-1.21,2.37Z"/>
    <path class="cls-3" d="M233.33,381.83c-.44.02-.88.03-1.31.05.02-.4.03-.8.05-1.2,1.08-.33,1.17.42,1.26,1.16Z"/>
    <path class="cls-3" d="M211.32,374.92c.71.07,1.43.14,1.19,1.17-.82.04-1.44-.12-1.19-1.17Z"/>
    <path class="cls-3" d="M283.74,568.69c-.03-.86.22-1.52,1.19-1.66-.4.55-.79,1.11-1.19,1.66Z"/>
    <path class="cls-4" d="M311.38,434.73c.18-.14.36-.29.54-.43-.14.18-.29.36-.43.54,0,0-.1-.1-.1-.1Z"/>
    <path class="cls-9" d="M210.41,338.4c.36-.39.71-.78,1.07-1.17,3.05-.7,5.68-2.83,8.85,1.19,1.78,2.26,6.52,2.2,9.92,3.18-.14,2.5-3.81,5.95,1.86,6.89,0,0-.08-.04-.08-.04.29,1.09.58,2.19.87,3.28-1.1,1.71-1.98,4.27-4.48,3.59-7.74-2.11-16.12-.81-23.54-4.5-1.7-5.71,3.68-8.28,5.53-12.42Z"/>
    <path class="cls-11" d="M204.89,350.82c7.42,3.69,15.8,2.39,23.54,4.5,2.5.68,3.38-1.89,4.48-3.59.47.08.94.16,1.41.25.44,4.3-2.12,6.06-5.78,5.63-7.08-.84-14.09-2.27-21.14-3.36-2.16-.33-3.52-1.28-3.88-3.48.46.02.92.04,1.38.06Z"/>
    <path class="cls-8" d="M234.31,351.97c-.47-.08-.94-.16-1.41-.25-.29-1.09-.58-2.19-.87-3.28,2.29.19,2.72,1.58,2.28,3.53Z"/>
    <path class="cls-2" d="M236.26,408.76s-.15.04-.15.04c-.03-.32-.06-.65-.09-.98l.24.94Z"/>
  </g>
  <g id="kunjaban">
    <path class="cls-20" d="M244.78,350.15c-8.53-8.53-22.35-8.53-30.88,0-8.53,8.53-8.53,22.35,0,30.88l11.58,11.58c2.13,2.13,5.59,2.13,7.72,0l11.58-11.58c8.53-8.53,8.53-22.35,0-30.88ZM229.34,373.78c-4.52,0-8.19-3.67-8.19-8.19s3.67-8.19,8.19-8.19,8.19,3.67,8.19,8.19-3.67,8.19-8.19,8.19Z"/>
  </g>
  <g id="hanoi">
    <g>
      <circle class="cls-17" cx="348.29" cy="403.47" r="8.19" transform="translate(-157.75 570.85) rotate(-67.5)"/>
      <path class="cls-17" d="M363.73,388.03c-8.53-8.53-22.35-8.53-30.88,0-8.53,8.53-8.53,22.35,0,30.88l11.58,11.58c2.13,2.13,5.59,2.13,7.72,0l11.58-11.58c8.53-8.53,8.53-22.35,0-30.88ZM348.29,411.66c-4.52,0-8.19-3.67-8.19-8.19s3.67-8.19,8.19-8.19,8.19,3.67,8.19,8.19-3.67,8.19-8.19,8.19Z"/>
    </g>
  </g>
  <g id="guangzhou">
    <g>
      <circle class="cls-18" cx="427.66" cy="374.85" r="8.19" transform="translate(-82.32 626.51) rotate(-67.5)"/>
      <path class="cls-18" d="M443.1,359.41c-8.53-8.53-22.35-8.53-30.88,0-8.53,8.53-8.53,22.35,0,30.88l11.58,11.58c2.13,2.13,5.58,2.13,7.72,0l11.58-11.58c8.53-8.53,8.53-22.35,0-30.88ZM427.66,383.04c-4.52,0-8.19-3.67-8.19-8.19s3.67-8.19,8.19-8.19,8.19,3.67,8.19,8.19-3.67,8.19-8.19,8.19Z"/>
    </g>
  </g>
  <g id="mae_hong_son">
    <g>
      <circle class="cls-19" cx="280.73" cy="445.87" r="8.19" transform="translate(-238.62 534.61) rotate(-67.5)"/>
      <path class="cls-19" d="M296.18,430.43c-8.53-8.53-22.35-8.53-30.88,0-8.53,8.53-8.53,22.35,0,30.88l11.58,11.58c2.13,2.13,5.58,2.13,7.72,0l11.58-11.58c8.53-8.53,8.53-22.35,0-30.88ZM280.73,454.05c-4.52,0-8.19-3.67-8.19-8.19s3.67-8.19,8.19-8.19,8.19,3.67,8.19,8.19-3.67,8.19-8.19,8.19Z"/>
    </g>
  </g>
</svg>